<mxfile host="app.diagrams.net" modified="2023-11-22T15:00:10.225Z" agent="Mozilla/5.0 (Windows NT 10.0; Win64; x64) AppleWebKit/537.36 (KHTML, like Gecko) Chrome/119.0.0.0 Safari/537.36" etag="vCMDCtEoO2Wh4U16gVvM" version="22.1.3" type="github">
  <diagram name="Page-1" id="Kti7_i8wA6Ya-gkXARpe">
    <mxGraphModel dx="1050" dy="581" grid="1" gridSize="10" guides="1" tooltips="1" connect="1" arrows="1" fold="1" page="1" pageScale="1" pageWidth="850" pageHeight="1100" math="0" shadow="0">
      <root>
        <mxCell id="0" />
        <mxCell id="1" parent="0" />
        <mxCell id="Ygwrfd-RP_-ZnEuzWZTe-12" style="edgeStyle=orthogonalEdgeStyle;rounded=0;orthogonalLoop=1;jettySize=auto;html=1;entryX=0.5;entryY=0;entryDx=0;entryDy=0;" edge="1" parent="1" source="Ygwrfd-RP_-ZnEuzWZTe-1" target="Ygwrfd-RP_-ZnEuzWZTe-2">
          <mxGeometry relative="1" as="geometry" />
        </mxCell>
        <mxCell id="Ygwrfd-RP_-ZnEuzWZTe-1" value="Start" style="rounded=1;whiteSpace=wrap;html=1;" vertex="1" parent="1">
          <mxGeometry x="350" y="80" width="120" height="60" as="geometry" />
        </mxCell>
        <mxCell id="Ygwrfd-RP_-ZnEuzWZTe-13" style="edgeStyle=orthogonalEdgeStyle;rounded=0;orthogonalLoop=1;jettySize=auto;html=1;entryX=0.5;entryY=0;entryDx=0;entryDy=0;" edge="1" parent="1" source="Ygwrfd-RP_-ZnEuzWZTe-2" target="Ygwrfd-RP_-ZnEuzWZTe-3">
          <mxGeometry relative="1" as="geometry" />
        </mxCell>
        <mxCell id="Ygwrfd-RP_-ZnEuzWZTe-2" value="Show logo" style="rounded=1;whiteSpace=wrap;html=1;" vertex="1" parent="1">
          <mxGeometry x="350" y="180" width="120" height="60" as="geometry" />
        </mxCell>
        <mxCell id="Ygwrfd-RP_-ZnEuzWZTe-14" style="edgeStyle=orthogonalEdgeStyle;rounded=0;orthogonalLoop=1;jettySize=auto;html=1;entryX=0.5;entryY=0;entryDx=0;entryDy=0;" edge="1" parent="1" source="Ygwrfd-RP_-ZnEuzWZTe-3" target="Ygwrfd-RP_-ZnEuzWZTe-5">
          <mxGeometry relative="1" as="geometry" />
        </mxCell>
        <mxCell id="Ygwrfd-RP_-ZnEuzWZTe-3" value="Ask for name and bidding price" style="rounded=1;whiteSpace=wrap;html=1;" vertex="1" parent="1">
          <mxGeometry x="350" y="280" width="120" height="60" as="geometry" />
        </mxCell>
        <mxCell id="Ygwrfd-RP_-ZnEuzWZTe-6" style="edgeStyle=orthogonalEdgeStyle;rounded=0;orthogonalLoop=1;jettySize=auto;html=1;entryX=-0.007;entryY=0.637;entryDx=0;entryDy=0;entryPerimeter=0;" edge="1" parent="1" source="Ygwrfd-RP_-ZnEuzWZTe-4" target="Ygwrfd-RP_-ZnEuzWZTe-3">
          <mxGeometry relative="1" as="geometry">
            <mxPoint x="200" y="320" as="targetPoint" />
            <Array as="points">
              <mxPoint x="200" y="520" />
              <mxPoint x="200" y="318" />
            </Array>
          </mxGeometry>
        </mxCell>
        <mxCell id="Ygwrfd-RP_-ZnEuzWZTe-7" value="Yes" style="edgeLabel;html=1;align=center;verticalAlign=middle;resizable=0;points=[];" vertex="1" connectable="0" parent="Ygwrfd-RP_-ZnEuzWZTe-6">
          <mxGeometry x="-0.7116" y="-1" relative="1" as="geometry">
            <mxPoint as="offset" />
          </mxGeometry>
        </mxCell>
        <mxCell id="Ygwrfd-RP_-ZnEuzWZTe-10" style="edgeStyle=orthogonalEdgeStyle;rounded=0;orthogonalLoop=1;jettySize=auto;html=1;entryX=0.5;entryY=0;entryDx=0;entryDy=0;" edge="1" parent="1" source="Ygwrfd-RP_-ZnEuzWZTe-4" target="Ygwrfd-RP_-ZnEuzWZTe-9">
          <mxGeometry relative="1" as="geometry" />
        </mxCell>
        <mxCell id="Ygwrfd-RP_-ZnEuzWZTe-11" value="No" style="edgeLabel;html=1;align=center;verticalAlign=middle;resizable=0;points=[];" vertex="1" connectable="0" parent="Ygwrfd-RP_-ZnEuzWZTe-10">
          <mxGeometry x="0.0333" y="1" relative="1" as="geometry">
            <mxPoint as="offset" />
          </mxGeometry>
        </mxCell>
        <mxCell id="Ygwrfd-RP_-ZnEuzWZTe-4" value="Ask if there is &lt;br&gt;anyone want to bid" style="rhombus;whiteSpace=wrap;html=1;" vertex="1" parent="1">
          <mxGeometry x="315" y="470" width="190" height="100" as="geometry" />
        </mxCell>
        <mxCell id="Ygwrfd-RP_-ZnEuzWZTe-15" style="edgeStyle=orthogonalEdgeStyle;rounded=0;orthogonalLoop=1;jettySize=auto;html=1;entryX=0.5;entryY=0;entryDx=0;entryDy=0;" edge="1" parent="1" source="Ygwrfd-RP_-ZnEuzWZTe-5" target="Ygwrfd-RP_-ZnEuzWZTe-4">
          <mxGeometry relative="1" as="geometry" />
        </mxCell>
        <mxCell id="Ygwrfd-RP_-ZnEuzWZTe-5" value="Add name and bidding price into dictionary as key and value" style="rounded=1;whiteSpace=wrap;html=1;" vertex="1" parent="1">
          <mxGeometry x="350" y="380" width="120" height="60" as="geometry" />
        </mxCell>
        <mxCell id="Ygwrfd-RP_-ZnEuzWZTe-8" value="Clear screen" style="rounded=1;whiteSpace=wrap;html=1;" vertex="1" parent="1">
          <mxGeometry x="140" y="380" width="120" height="60" as="geometry" />
        </mxCell>
        <mxCell id="Ygwrfd-RP_-ZnEuzWZTe-9" value="Find the highest bid and declare them as winner" style="rounded=1;whiteSpace=wrap;html=1;" vertex="1" parent="1">
          <mxGeometry x="350" y="630" width="120" height="60" as="geometry" />
        </mxCell>
      </root>
    </mxGraphModel>
  </diagram>
</mxfile>
